<svg width="9" height="6" viewBox="0 0 9 6" fill="none" xmlns="http://www.w3.org/2000/svg">
<g clip-path="url(#clip0_16_201)">
<mask id="mask0_16_201" style="mask-type:luminance" maskUnits="userSpaceOnUse" x="0" y="0" width="9" height="6">
<path d="M0 0H9V6H0V0Z" fill="white"/>
</mask>
<g mask="url(#mask0_16_201)">
<path d="M0 0V6H9V0H0Z" fill="black"/>
<path d="M0 0V3H9V0H0Z" fill="black"/>
<path d="M0 0L4.5 3L0 6M4.5 3H9Z" fill="black"/>
<path d="M0 0L4.5 3M4.5 3L0 6M4.5 3H9" stroke="black" stroke-width="2"/>
<mask id="mask1_16_201" style="mask-type:luminance" maskUnits="userSpaceOnUse" x="0" y="0" width="5" height="6">
<path d="M0 0L4.5 3L0 6" fill="white"/>
</mask>
<g mask="url(#mask1_16_201)">
<path d="M0 0L4.5 3L0 6" fill="black"/>
<path d="M0 0L4.5 3L0 6" stroke="black" stroke-width="2"/>
</g>
<path d="M0 0L4.5 3M4.5 3L0 6M4.5 3H9" stroke="black" stroke-width="1.2"/>
</g>
<path d="M4.11648 3.77273V3.74716C4.11932 3.47585 4.14773 3.25994 4.2017 3.09943C4.25568 2.93892 4.33239 2.80895 4.43182 2.70952C4.53125 2.61009 4.65057 2.51847 4.78977 2.43466C4.87358 2.38352 4.94886 2.32315 5.01562 2.25355C5.08239 2.18253 5.13494 2.10085 5.1733 2.00852C5.21307 1.91619 5.23295 1.81392 5.23295 1.7017C5.23295 1.5625 5.20028 1.44176 5.13494 1.33949C5.0696 1.23722 4.98224 1.15838 4.87287 1.10298C4.76349 1.04759 4.64205 1.01989 4.50852 1.01989C4.39205 1.01989 4.27983 1.04403 4.17188 1.09233C4.06392 1.14062 3.97372 1.21662 3.90128 1.32031C3.82884 1.42401 3.78693 1.55966 3.77557 1.72727H3.23864C3.25 1.4858 3.3125 1.27912 3.42614 1.10724C3.54119 0.935369 3.69247 0.803977 3.87997 0.713068C4.06889 0.622159 4.27841 0.576704 4.50852 0.576704C4.75852 0.576704 4.97585 0.62642 5.16051 0.725852C5.34659 0.825284 5.49006 0.961648 5.59091 1.13494C5.69318 1.30824 5.74432 1.50568 5.74432 1.72727C5.74432 1.88352 5.72017 2.02486 5.67188 2.15128C5.625 2.2777 5.55682 2.39062 5.46733 2.49006C5.37926 2.58949 5.27273 2.67756 5.14773 2.75426C5.02273 2.83239 4.92259 2.91477 4.8473 3.00142C4.77202 3.08665 4.71733 3.18821 4.68324 3.30611C4.64915 3.42401 4.63068 3.57102 4.62784 3.74716V3.77273H4.11648ZM4.3892 5.03409C4.28409 5.03409 4.19389 4.99645 4.11861 4.92116C4.04332 4.84588 4.00568 4.75568 4.00568 4.65057C4.00568 4.54545 4.04332 4.45526 4.11861 4.37997C4.19389 4.30469 4.28409 4.26705 4.3892 4.26705C4.49432 4.26705 4.58452 4.30469 4.6598 4.37997C4.73509 4.45526 4.77273 4.54545 4.77273 4.65057C4.77273 4.72017 4.75497 4.78409 4.71946 4.84233C4.68537 4.90057 4.6392 4.94744 4.58097 4.98295C4.52415 5.01705 4.46023 5.03409 4.3892 5.03409Z" fill="white"/>
</g>
<defs>
<clipPath id="clip0_16_201">
<rect width="9" height="6" fill="white"/>
</clipPath>
</defs>
</svg>
